HIERARCHY
ROOT Hips
{
	OFFSET 55.310501 45.591206 43.872097
	CHANNELS 6 Xposition Yposition Zposition Zrotation Xrotation Yrotation
	JOINT Chest
	{
		OFFSET -0.153500 1.163101 7.852402
		CHANNELS 6 Xposition Yposition Zposition Zrotation Xrotation Yrotation
		JOINT Chest2
		{
			OFFSET 0.000000 0.000000 3.343300
			CHANNELS 6 Xposition Yposition Zposition Zrotation Xrotation Yrotation
			JOINT Neck
			{
				OFFSET 0.000000 0.000000 7.785500
				CHANNELS 6 Xposition Yposition Zposition Zrotation Xrotation Yrotation
				JOINT Head
				{
					OFFSET 0.000000 0.000000 2.173901
					CHANNELS 6 Xposition Yposition Zposition Zrotation Xrotation Yrotation
					End Site
					{
						OFFSET 0.000000 0.000000 10.528198
					}
				}
			}
			JOINT LeftCollar
			{
				OFFSET 2.676300 -1.652401 4.938301
				CHANNELS 6 Xposition Yposition Zposition Zrotation Xrotation Yrotation
				JOINT LeftShoulder
				{
					OFFSET 4.299000 0.000000 0.000000
					CHANNELS 6 Xposition Yposition Zposition Zrotation Xrotation Yrotation
					JOINT LeftElbow
					{
						OFFSET 0.000000 0.000000 -10.245102
						CHANNELS 6 Xposition Yposition Zposition Zrotation Xrotation Yrotation
						JOINT LeftWrist
						{
							OFFSET 0.000000 0.000000 -12.703300
							CHANNELS 6 Xposition Yposition Zposition Zrotation Xrotation Yrotation
							End Site
							{
								OFFSET 0.000000 0.000000 -2.173901
							}
						}
					}
				}
			}
			JOINT RightCollar
			{
				OFFSET -2.534599 -1.686401 5.195000
				CHANNELS 6 Xposition Yposition Zposition Zrotation Xrotation Yrotation
				JOINT RightShoulder
				{
					OFFSET -4.144100 0.000000 0.000000
					CHANNELS 6 Xposition Yposition Zposition Zrotation Xrotation Yrotation
					JOINT RightElbow
					{
						OFFSET 0.000000 0.000000 -10.116501
						CHANNELS 6 Xposition Yposition Zposition Zrotation Xrotation Yrotation
						JOINT RightWrist
						{
							OFFSET 0.000000 0.000000 -12.937801
							CHANNELS 6 Xposition Yposition Zposition Zrotation Xrotation Yrotation
							End Site
							{
								OFFSET 0.000000 0.000000 -2.173901
							}
						}
					}
				}
			}
		}
	}
	JOINT LeftHip
	{
		OFFSET 2.175598 0.064499 -2.662899
		CHANNELS 6 Xposition Yposition Zposition Zrotation Xrotation Yrotation
		JOINT LeftKnee
		{
			OFFSET 0.000000 -0.000004 -18.585800
			CHANNELS 6 Xposition Yposition Zposition Zrotation Xrotation Yrotation
			JOINT LeftAnkle
			{
				OFFSET 0.000000 0.000000 -18.979500
				CHANNELS 6 Xposition Yposition Zposition Zrotation Xrotation Yrotation
				End Site
				{
					OFFSET 0.000000 -9.264000 0.000000
				}
			}
		}
	}
	JOINT RightHip
	{
		OFFSET -2.092400 -0.058102 -2.581200
		CHANNELS 6 Xposition Yposition Zposition Zrotation Xrotation Yrotation
		JOINT RightKnee
		{
			OFFSET 0.000000 -0.000004 -18.665001
			CHANNELS 6 Xposition Yposition Zposition Zrotation Xrotation Yrotation
			JOINT RightAnkle
			{
				OFFSET 0.000000 0.000000 -18.566601
				CHANNELS 6 Xposition Yposition Zposition Zrotation Xrotation Yrotation
				End Site
				{
					OFFSET 0.000000 -8.497601 0.000000
				}
			}
		}
	}
}
MOTION
Frames: 6
Frame Time: 0.041667
28.710110 29.264706 46.981091 378.274181 -4.483417 2.535110 -0.153503 1.163102 7.852401 -19.016932 11.399462 3.838711 0.000005 0.000005 3.343297 13.144434 -3.984349 1.239802 -0.000006 -0.000000 7.785504 5.193110 9.767842 -6.147122 -0.000000 0.000001 2.173912 1.528876 -0.087185 -0.219351 2.676294 -1.652399 4.938299 -2.672556 4.122836 -0.403037 4.299007 -0.000002 0.000000 -57.680941 -5.123728 -84.800507 -0.000010 -0.000002 -10.245100 228.273009 252.730605 237.936033 -0.000007 0.000003 -12.703297 521.562206 199.789508 217.700901 -2.534606 -1.686402 5.195004 0.359792 7.047303 14.356158 -4.144100 0.000000 -0.000006 56.873824 -16.299026 138.357079 0.000000 0.000005 -10.116498 -76.552794 -18.504890 -38.502091 -0.000002 0.000002 -12.937796 -322.770479 -406.090017 -44.366334 2.175588 0.064492 -2.662902 -358.416936 -0.075844 -11.701629 -0.000002 -0.000001 -18.585800 173.995067 -203.858675 -165.118990 -0.000006 -0.000004 -18.979515 377.529472 17.890434 -70.699766 -2.092400 -0.058111 -2.581205 351.215239 -0.831583 1.924398 -0.000006 -0.000010 -18.665005 -1096.455076 21.400945 -5.139347 0.000006 -0.000011 -18.566603 739.250061 30.331217 0.673162
28.875906 29.228104 47.076096 378.010864 -4.608651 2.590545 -0.153497 1.163105 7.852399 -18.712734 11.450890 3.653373 0.000003 0.000005 3.343303 12.494304 -3.988242 1.159991 0.000000 0.000003 7.785511 5.256105 9.600071 -6.342739 -0.000005 0.000004 2.173904 1.506491 -0.170062 -0.171288 2.676295 -1.652392 4.938307 -2.991967 4.264501 -0.279416 4.299006 -0.000002 -0.000011 -57.431536 -5.361487 -85.420852 -0.000015 0.000004 -10.245106 227.976401 252.316914 236.610320 0.000001 0.000006 -12.703301 522.399041 200.090337 218.458683 -2.534596 -1.686395 5.195006 0.400349 6.593287 14.208761 -4.144102 0.000000 -0.000008 57.289776 -16.449046 139.128153 0.000012 -0.000002 -10.116495 -74.631742 -19.313270 -35.944635 0.000002 0.000004 -12.937801 -325.311965 -405.835087 -44.604984 2.175595 0.064505 -2.662899 -359.280818 0.630710 -11.559610 -0.000005 0.000001 -18.585802 175.061341 -203.317397 -165.041508 -0.000005 -0.000000 -18.979507 377.785850 18.320099 -70.250114 -2.092400 -0.058109 -2.581197 351.164996 -0.590786 2.055843 0.000000 -0.000003 -18.665010 -1098.336493 20.992472 -4.716245 0.000010 -0.000005 -18.566603 740.914223 31.538532 0.386096
29.033104 29.196800 47.164097 377.800412 -4.739336 2.670966 -0.153496 1.163101 7.852396 -18.458441 11.474026 3.468668 0.000004 0.000005 3.343304 11.933623 -3.982887 1.087605 0.000000 -0.000005 7.785505 5.302745 9.514366 -6.559592 0.000000 -0.000002 2.173905 1.467549 -0.260383 -0.074055 2.676299 -1.652399 4.938305 -3.543452 4.423654 0.612576 4.299008 0.000000 -0.000010 -57.081168 -5.037662 -86.388800 -0.000004 0.000001 -10.245105 227.417145 251.827709 235.021974 -0.000005 0.000002 -12.703303 523.226150 200.282088 219.225863 -2.534597 -1.686406 5.195001 0.408440 6.237828 14.078499 -4.144103 0.000004 0.000004 57.762384 -16.617495 139.942366 -0.000001 0.000000 -10.116488 -76.536614 -17.061924 -34.748201 0.000003 -0.000000 -12.937809 -322.946944 -405.675042 -44.519016 2.175594 0.064499 -2.662902 -360.022550 1.199626 -11.466602 -0.000001 -0.000002 -18.585800 175.945127 -202.929305 -164.980501 -0.000001 -0.000006 -18.979509 378.026928 18.814613 -69.791747 -2.092396 -0.058110 -2.581198 351.155953 -0.359720 2.157257 0.000001 -0.000007 -18.665010 -1100.023057 20.622008 -4.355554 0.000008 -0.000008 -18.566603 742.416974 32.683849 0.041327
29.185003 29.168098 47.242897 377.635067 -4.918896 2.754952 -0.153501 1.163101 7.852404 -18.245440 11.489842 3.287773 0.000005 0.000005 3.343296 11.461712 -3.950348 1.025076 -0.000001 0.000007 7.785503 5.216707 9.531599 -6.645817 -0.000002 -0.000001 2.173899 1.555181 -0.381162 0.032356 2.676299 -1.652392 4.938300 -3.903759 4.527764 0.649452 4.299003 0.000006 -0.000007 -57.005763 -5.476486 -86.787252 -0.000000 0.000001 -10.245110 226.128849 251.217418 232.760744 -0.000012 0.000010 -12.703307 524.020091 200.479057 219.872969 -2.534598 -1.686392 5.195002 0.426873 6.027577 14.025518 -4.144107 -0.000006 -0.000003 58.095055 -16.813684 140.759161 0.000005 -0.000001 -10.116505 -76.402865 -16.412048 -32.787749 0.000005 -0.000002 -12.937803 -323.585075 -405.521855 -44.817331 2.175590 0.064497 -2.662899 -360.766521 1.864732 -11.369144 0.000001 -0.000005 -18.585804 176.733358 -202.524767 -164.904863 -0.000002 -0.000000 -18.979517 378.179788 19.275216 -69.329323 -2.092400 -0.058106 -2.581194 351.165024 -0.100298 2.263952 0.000000 -0.000005 -18.665001 -1101.631485 20.308160 -4.019031 0.000005 -0.000004 -18.566605 743.890710 33.754204 -0.332594
29.332102 29.141407 47.310192 377.416036 -5.110104 2.821444 -0.153501 1.163101 7.852401 -17.981363 11.458272 3.134084 0.000004 0.000004 3.343302 11.095135 -3.884711 0.979723 -0.000002 0.000003 7.785502 5.060333 9.612357 -6.694023 0.000000 0.000003 2.173911 1.661835 -0.503742 0.067935 2.676294 -1.652394 4.938303 -4.254474 4.568854 0.509838 4.299010 0.000001 -0.000003 -57.063355 -6.080785 -86.992493 -0.000004 0.000000 -10.245109 224.379391 250.525875 230.090714 0.000003 0.000002 -12.703298 524.749719 200.656259 220.396763 -2.534594 -1.686392 5.195008 0.289325 5.872562 14.151278 -4.144099 0.000000 0.000010 58.499498 -17.141967 141.548239 0.000010 0.000009 -10.116489 -76.306921 -15.603308 -31.014000 -0.000004 -0.000004 -12.937811 -324.100044 -404.961779 -44.942757 2.175591 0.064493 -2.662904 -361.477872 2.504496 -11.285710 -0.000003 0.000001 -18.585800 177.420297 -202.175771 -164.817178 -0.000004 -0.000006 -18.979507 378.270466 19.697052 -68.966688 -2.092397 -0.058108 -2.581200 351.292202 0.148838 2.416915 0.000003 -0.000004 -18.665009 -1102.516678 20.142527 -3.887084 0.000006 -0.000002 -18.566607 744.722409 34.501055 -0.699400
29.477804 29.114603 47.366295 377.145233 -5.334056 2.878200 -0.153494 1.163102 7.852408 -17.662714 11.400856 2.980658 0.000004 0.000003 3.343297 10.789726 -3.820378 0.945927 -0.000005 0.000005 7.785502 4.837299 9.740144 -6.682108 0.000003 0.000010 2.173901 1.798807 -0.581112 0.078877 2.676296 -1.652400 4.938297 -4.627074 4.657961 0.358866 4.298999 -0.000010 -0.000005 -57.190489 -6.741569 -87.144403 -0.000007 0.000007 -10.245106 222.520214 249.671609 227.319460 0.000011 0.000006 -12.703295 525.288320 200.819091 220.775988 -2.534602 -1.686400 5.194997 0.715381 6.135051 13.608804 -4.144102 -0.000002 0.000003 58.362505 -16.992589 142.813709 0.000005 0.000002 -10.116499 -76.132717 -14.872915 -29.265288 -0.000003 -0.000002 -12.937801 -324.599959 -404.504157 -44.935289 2.175596 0.064497 -2.662898 -362.251186 3.228433 -11.196289 -0.000008 -0.000001 -18.585800 178.248143 -201.819413 -164.798053 0.000004 -0.000002 -18.979509 378.173176 20.065453 -68.680223 -2.092393 -0.058110 -2.581190 351.421128 0.382951 2.622154 0.000003 -0.000009 -18.665005 -1102.658745 20.179796 -3.908708 0.000001 -0.000001 -18.566601 745.010916 34.912778 -1.063173
